<svg width="373" height="213" viewBox="0 0 373 213" fill="none" xmlns="http://www.w3.org/2000/svg">
<mask id="path-1-inside-1_518_2566" fill="white">
<path fill-rule="evenodd" clip-rule="evenodd" d="M0.0531997 193.086C0.0324477 203.615 8.55042 212.166 19.0786 212.187L353.519 212.842C364.047 212.863 372.598 204.345 372.619 193.817L372.962 19.7932C372.983 9.26501 364.465 0.713497 353.937 0.692863L205.122 0.401197L204.805 0.505542C204.383 0.644622 203.977 0.827618 203.593 1.05152L181.193 14.1124C174.396 18.076 165.981 18.0305 159.227 13.9936L137.063 0.746964C136.747 0.557959 136.415 0.397061 136.072 0.265865L19.4968 0.0373852C8.96859 0.0167507 0.416965 8.53481 0.396214 19.063L0.0531997 193.086ZM203.17 211.58L180.435 198.268C173.771 194.366 165.53 194.318 158.82 198.142L135.523 211.421L133.638 212.411L205.657 212.552L204.377 212.127C203.957 211.988 203.552 211.804 203.17 211.58Z"/>
</mask>
<path fill-rule="evenodd" clip-rule="evenodd" d="M0.0531997 193.086C0.0324477 203.615 8.55042 212.166 19.0786 212.187L353.519 212.842C364.047 212.863 372.598 204.345 372.619 193.817L372.962 19.7932C372.983 9.26501 364.465 0.713497 353.937 0.692863L205.122 0.401197L204.805 0.505542C204.383 0.644622 203.977 0.827618 203.593 1.05152L181.193 14.1124C174.396 18.076 165.981 18.0305 159.227 13.9936L137.063 0.746964C136.747 0.557959 136.415 0.397061 136.072 0.265865L19.4968 0.0373852C8.96859 0.0167507 0.416965 8.53481 0.396214 19.063L0.0531997 193.086ZM203.17 211.58L180.435 198.268C173.771 194.366 165.53 194.318 158.82 198.142L135.523 211.421L133.638 212.411L205.657 212.552L204.377 212.127C203.957 211.988 203.552 211.804 203.17 211.58Z" fill="url(#paint0_linear_518_2566)"/>
<path d="M19.0786 212.187L19.0767 213.187L19.0786 212.187ZM0.0531997 193.086L-0.946798 193.084L0.0531997 193.086ZM353.519 212.842L353.521 211.842L353.519 212.842ZM372.619 193.817L371.619 193.815L372.619 193.817ZM372.962 19.7932L373.962 19.7952L372.962 19.7932ZM353.937 0.692863L353.939 -0.307135L353.937 0.692863ZM205.122 0.401197L204.809 -0.548591L204.963 -0.599118L205.124 -0.598801L205.122 0.401197ZM204.805 0.505542L205.118 1.45533L204.805 0.505542ZM203.593 1.05152L204.096 1.91538L204.096 1.91539L203.593 1.05152ZM181.193 14.1124L180.69 13.2485L181.193 14.1124ZM159.227 13.9936L158.714 14.852L159.227 13.9936ZM137.063 0.746964L136.55 1.60534L136.55 1.60532L137.063 0.746964ZM136.072 0.265865L136.074 -0.734134L136.258 -0.733774L136.429 -0.668221L136.072 0.265865ZM0.396214 19.063L1.39621 19.065L0.396214 19.063ZM180.435 198.268L179.93 199.131L179.93 199.131L180.435 198.268ZM203.17 211.58L203.675 210.717L203.675 210.717L203.17 211.58ZM158.82 198.142L159.315 199.011L158.82 198.142ZM135.523 211.421L136.018 212.29L136.003 212.298L135.988 212.307L135.523 211.421ZM133.638 212.411L133.636 213.411L133.173 211.526L133.638 212.411ZM205.657 212.552L205.972 211.603L205.655 213.552L205.657 212.552ZM204.377 212.127L204.062 213.076L204.062 213.076L204.377 212.127ZM19.0767 213.187C7.99617 213.165 -0.968639 204.165 -0.946798 193.084L1.0532 193.088C1.03353 203.064 9.10467 211.167 19.0806 211.187L19.0767 213.187ZM353.517 213.842L19.0767 213.187L19.0806 211.187L353.521 211.842L353.517 213.842ZM373.619 193.819C373.597 204.899 364.597 213.864 353.517 213.842L353.521 211.842C363.497 211.862 371.6 203.791 371.619 193.815L373.619 193.819ZM373.962 19.7952L373.619 193.819L371.619 193.815L371.962 19.7913L373.962 19.7952ZM353.939 -0.307135C365.019 -0.285418 373.984 8.71468 373.962 19.7952L371.962 19.7913C371.982 9.81534 363.911 1.71241 353.935 1.69286L353.939 -0.307135ZM205.124 -0.598801L353.939 -0.307135L353.935 1.69286L205.12 1.4012L205.124 -0.598801ZM205.435 1.35099L205.118 1.45533L204.492 -0.444246L204.809 -0.548591L205.435 1.35099ZM205.118 1.45533C204.762 1.57252 204.42 1.72673 204.096 1.91538L203.089 0.187663C203.533 -0.0714915 204.004 -0.283278 204.492 -0.444246L205.118 1.45533ZM204.096 1.91539L181.697 14.9763L180.69 13.2485L203.089 0.187648L204.096 1.91539ZM181.697 14.9763C174.585 19.1233 165.78 19.0757 158.714 14.852L159.74 13.1353C166.181 16.9853 174.207 17.0287 180.69 13.2485L181.697 14.9763ZM158.714 14.852L136.55 1.60534L137.576 -0.111407L159.74 13.1353L158.714 14.852ZM136.55 1.60532C136.284 1.44606 136.004 1.31049 135.715 1.19995L136.429 -0.668221C136.827 -0.516365 137.21 -0.330142 137.576 -0.111391L136.55 1.60532ZM19.4988 -0.962613L136.074 -0.734134L136.07 1.26586L19.4948 1.03738L19.4988 -0.962613ZM-0.603785 19.0611C-0.581944 7.98056 8.41827 -0.98433 19.4988 -0.962613L19.4948 1.03738C9.5189 1.01783 1.41587 9.08906 1.39621 19.065L-0.603785 19.0611ZM-0.946798 193.084L-0.603785 19.0611L1.39621 19.065L1.0532 193.088L-0.946798 193.084ZM180.941 197.405L203.675 210.717L202.665 212.443L179.93 199.131L180.941 197.405ZM158.325 197.273C165.345 193.272 173.968 193.322 180.941 197.405L179.93 199.131C173.574 195.409 165.714 195.364 159.315 199.011L158.325 197.273ZM135.028 210.552L158.325 197.273L159.315 199.011L136.018 212.29L135.028 210.552ZM133.173 211.526L135.058 210.536L135.988 212.307L134.103 213.296L133.173 211.526ZM205.655 213.552L133.636 213.411L133.64 211.411L205.659 211.552L205.655 213.552ZM204.693 211.178L205.972 211.603L205.342 213.501L204.062 213.076L204.693 211.178ZM203.675 210.717C203.997 210.906 204.338 211.061 204.693 211.178L204.062 213.076C203.575 212.915 203.107 212.702 202.664 212.443L203.675 210.717Z" fill="#767680" fill-opacity="0.12" mask="url(#path-1-inside-1_518_2566)"/>
<defs>
<linearGradient id="paint0_linear_518_2566" x1="0.224707" y1="106.075" x2="372.791" y2="106.809" gradientUnits="userSpaceOnUse">
<stop stop-color="#141442"/>
<stop offset="1" stop-color="#0400FF"/>
</linearGradient>
</defs>
</svg>
