<svg width="271" height="155" viewBox="0 0 271 155" fill="none" xmlns="http://www.w3.org/2000/svg">
<mask id="path-1-inside-1_520_3139" fill="white">
<path fill-rule="evenodd" clip-rule="evenodd" d="M147.86 153.911L131.403 144.275C126.579 141.45 120.614 141.416 115.757 144.184L98.8928 153.796L97.5299 154.512L14.6032 154.349C6.9822 154.334 0.816377 148.144 0.831398 140.523L1.07969 14.5546C1.09471 6.93365 7.28488 0.767757 14.9058 0.782694L99.2928 0.948086C99.5403 1.04287 99.7795 1.159 100.008 1.29531L116.051 10.8841C120.94 13.8062 127.031 13.8391 131.952 10.97L148.166 1.51577C148.444 1.3537 148.738 1.22123 149.043 1.12056L149.27 1.04604L256.994 1.25717C264.615 1.2721 270.781 7.46223 270.766 15.0832L270.517 141.052C270.502 148.673 264.312 154.839 256.691 154.824L149.657 154.614L148.734 154.307C148.429 154.206 148.136 154.073 147.86 153.911Z"/>
</mask>
<path fill-rule="evenodd" clip-rule="evenodd" d="M147.86 153.911L131.403 144.275C126.579 141.45 120.614 141.416 115.757 144.184L98.8928 153.796L97.5299 154.512L14.6032 154.349C6.9822 154.334 0.816377 148.144 0.831398 140.523L1.07969 14.5546C1.09471 6.93365 7.28488 0.767757 14.9058 0.782694L99.2928 0.948086C99.5403 1.04287 99.7795 1.159 100.008 1.29531L116.051 10.8841C120.94 13.8062 127.031 13.8391 131.952 10.97L148.166 1.51577C148.444 1.3537 148.738 1.22123 149.043 1.12056L149.27 1.04604L256.994 1.25717C264.615 1.2721 270.781 7.46223 270.766 15.0832L270.517 141.052C270.502 148.673 264.312 154.839 256.691 154.824L149.657 154.614L148.734 154.307C148.429 154.206 148.136 154.073 147.86 153.911Z" fill="url(#paint0_linear_520_3139)"/>
<path d="M131.403 144.275L131.769 143.651L131.403 144.275ZM147.86 153.911L148.225 153.287L148.225 153.287L147.86 153.911ZM115.757 144.184L116.115 144.813L115.757 144.184ZM98.8928 153.796L99.2513 154.425L99.2404 154.431L99.2294 154.437L98.8928 153.796ZM97.5299 154.512L97.8665 155.153L97.7078 155.236L97.5285 155.236L97.5299 154.512ZM14.6032 154.349L14.6017 155.073L14.6032 154.349ZM0.831398 140.523L0.107539 140.522L0.831398 140.523ZM1.07969 14.5546L1.80355 14.556L1.07969 14.5546ZM99.2928 0.948086L99.2943 0.224226L99.4274 0.224487L99.5517 0.272094L99.2928 0.948086ZM100.008 1.29531L100.379 0.673969L100.379 0.673969L100.008 1.29531ZM116.051 10.8841L115.679 11.5054L116.051 10.8841ZM131.952 10.97L132.316 11.5954L131.952 10.97ZM148.166 1.51577L147.801 0.890448L147.801 0.890433L148.166 1.51577ZM149.043 1.12056L148.817 0.433042L149.043 1.12056ZM149.27 1.04604L149.043 0.358519L149.154 0.321947L149.271 0.322176L149.27 1.04604ZM270.766 15.0832L270.042 15.0817L270.766 15.0832ZM270.517 141.052L271.241 141.053L270.517 141.052ZM149.657 154.614L149.656 155.338L149.54 155.338L149.429 155.301L149.657 154.614ZM148.734 154.307L148.506 154.994L148.506 154.994L148.734 154.307ZM131.769 143.651L148.225 153.287L147.494 154.536L131.037 144.9L131.769 143.651ZM115.398 143.555C120.48 140.659 126.721 140.695 131.769 143.651L131.037 144.9C126.436 142.206 120.747 142.173 116.115 144.813L115.398 143.555ZM98.5344 153.167L115.398 143.555L116.115 144.813L99.2513 154.425L98.5344 153.167ZM97.1934 153.871L98.5563 153.155L99.2294 154.437L97.8665 155.153L97.1934 153.871ZM14.6046 153.625L97.5314 153.788L97.5285 155.236L14.6017 155.073L14.6046 153.625ZM1.55526 140.525C1.54102 147.746 7.38341 153.611 14.6046 153.625L14.6017 155.073C6.581 155.057 0.0917292 148.543 0.107539 140.522L1.55526 140.525ZM1.80355 14.556L1.55526 140.525L0.107539 140.522L0.355833 14.5532L1.80355 14.556ZM14.9044 1.50655C7.68323 1.4924 1.81779 7.33484 1.80355 14.556L0.355833 14.5532C0.371642 6.53245 6.88653 0.0431133 14.9073 0.0588333L14.9044 1.50655ZM99.2914 1.67195L14.9044 1.50655L14.9073 0.0588333L99.2943 0.224226L99.2914 1.67195ZM99.6362 1.91666C99.444 1.80179 99.2425 1.70394 99.0339 1.62408L99.5517 0.272094C99.8382 0.381801 100.115 0.516209 100.379 0.673969L99.6362 1.91666ZM115.679 11.5054L99.6362 1.91666L100.379 0.673969L116.422 10.2627L115.679 11.5054ZM132.316 11.5954C127.168 14.5972 120.795 14.5628 115.679 11.5054L116.422 10.2627C121.085 13.0496 126.894 13.081 131.587 10.3447L132.316 11.5954ZM148.53 2.14109L132.316 11.5954L131.587 10.3447L147.801 0.890448L148.53 2.14109ZM149.27 1.80808C149.012 1.8929 148.764 2.00452 148.53 2.1411L147.801 0.890433C148.123 0.702876 148.463 0.549567 148.817 0.433042L149.27 1.80808ZM149.496 1.73355L149.27 1.80808L148.817 0.433042L149.043 0.358519L149.496 1.73355ZM256.992 1.98103L149.268 1.7699L149.271 0.322176L256.995 0.533308L256.992 1.98103ZM270.042 15.0817C270.056 7.86059 264.214 1.99518 256.992 1.98103L256.995 0.533308C265.016 0.549028 271.505 7.06386 271.489 15.0846L270.042 15.0817ZM269.793 141.05L270.042 15.0817L271.489 15.0846L271.241 141.053L269.793 141.05ZM256.693 154.1C263.914 154.114 269.779 148.272 269.793 141.05L271.241 141.053C271.225 149.074 264.71 155.563 256.69 155.548L256.693 154.1ZM149.659 153.89L256.693 154.1L256.69 155.548L149.656 155.338L149.659 153.89ZM148.962 153.62L149.886 153.927L149.429 155.301L148.506 154.994L148.962 153.62ZM148.225 153.287C148.459 153.423 148.706 153.535 148.962 153.62L148.506 154.994C148.153 154.877 147.814 154.724 147.494 154.536L148.225 153.287Z" fill="#767680" fill-opacity="0.12" mask="url(#path-1-inside-1_520_3139)"/>
<defs>
<linearGradient id="paint0_linear_520_3139" x1="0.955545" y1="77.5389" x2="270.641" y2="78.0705" gradientUnits="userSpaceOnUse">
<stop stop-color="#141442"/>
<stop offset="1" stop-color="#0400FF"/>
</linearGradient>
</defs>
</svg>
